<svg xmlns="http://www.w3.org/2000/svg" version="1.1" xmlns:xlink="http://www.w3.org/1999/xlink" xmlns:svgjs="http://svgjs.dev/svgjs" width="1213" height="802" preserveAspectRatio="none" viewBox="0 0 1213 802"><g mask="url(&quot;#SvgjsMask1087&quot;)" fill="none"><rect width="1213" height="802" x="0" y="0" fill="rgba(14, 14, 14, 1)"></rect><path d="M0,458.071C82.969,440.376,129.731,356.668,192.635,299.746C244.349,252.95,307.397,217.056,336.423,153.639C365.46,90.196,358.473,18.799,353.062,-50.763C347.304,-124.786,349.654,-204.864,303.981,-263.401C257.599,-322.846,176.96,-336.642,107.367,-365.657C28.658,-398.473,-45.52,-451.229,-130.535,-444.563C-223.395,-437.282,-321.372,-401.5,-378.066,-327.596C-434.099,-254.554,-422.897,-153.108,-424.73,-61.067C-426.363,20.949,-416.906,100.433,-388.119,177.248C-357.578,258.742,-324.335,343.946,-253.827,394.962C-181.732,447.126,-87.03,476.632,0,458.071" fill="#090909"></path><path d="M1213 1236.022C1303.379 1231.13 1396.93 1254.516 1478.1689999999999 1214.6109999999999 1563.7559999999999 1172.571 1627.719 1096.134 1670.885 1011.109 1715.22 923.781 1741.542 824.917 1725.02 728.383 1708.701 633.038 1648.85 552.018 1580.5810000000001 483.489 1515.608 418.268 1432.518 380.329 1346.256 348.173 1254.04 313.797 1158.014 265.56899999999996 1062.8029999999999 290.476 966.888 315.567 904.065 403.191 841.6089999999999 480.188 780.924 555.002 717.076 633.441 706.904 729.234 696.877 823.656 749.212 909.444 786.765 996.655 825.1800000000001 1085.867 844.0260000000001 1196.7939999999999 928.716 1244.355 1013.0840000000001 1291.7350000000001 1116.379 1241.252 1213 1236.022" fill="#131313"></path></g><defs><mask id="SvgjsMask1087"><rect width="1213" height="802" fill="#ffffff"></rect></mask></defs></svg>